<svg width="361" height="370" viewBox="0 0 361 370" fill="none" xmlns="http://www.w3.org/2000/svg">
    <path d="M44.0608 290.6C44.0142 290.599 43.9687 290.615 43.9325 290.646C43.8962 290.677 43.8714 290.719 43.8624 290.767C38.8371 320.417 35.175 342.142 32.8759 355.942C31.9146 361.717 26.9631 367.339 21.1341 369.165C14.9237 371.117 9.26 369.647 4.14313 364.752C1.97126 362.678 0.651347 359.767 0.183403 356.019C-0.198074 353.006 0.0155505 349.131 0.824281 344.394C11.8464 279.769 28.7458 179.762 51.5225 44.375C52.5296 38.3699 53.5698 33.506 54.643 29.7833C59.6556 12.3692 73.7016 0.128326 92.4168 0.0826794C139.623 -0.0390445 182.491 -0.0263626 221.02 0.12072C225.544 0.143544 231 0.774988 234.494 1.13255C254.163 3.12578 270.871 11.616 286.092 24.1764C305.113 39.8712 319.998 62.4281 324.316 86.887C324.889 90.1051 326.483 91.0332 329.71 91.969C337.732 94.2919 344.842 97.7154 351.043 102.239C355.468 105.465 360.251 110.851 360.747 116.375C361.365 123.191 356.002 125.983 350.089 126.85C346.89 127.322 342.848 127.644 337.966 127.817C336.847 127.852 335.209 128.113 333.052 128.6C326.361 130.107 322.218 134.435 321.333 141.465C320.972 144.351 320.769 146.063 320.723 146.6C319.985 155.121 319.169 161.661 318.274 166.221C314.311 186.437 310.909 202.814 308.065 215.351C305.105 228.376 300.339 241.692 293.768 255.3C284.872 273.72 273.631 290.397 260.045 305.328C251.19 315.061 240.511 324.373 228.009 333.264C201.107 352.397 169.406 364.022 136.905 367.628C126.132 368.825 119.12 369.431 115.87 369.446C106.959 369.497 99.9624 369.515 94.8811 369.499C81.1098 369.454 74.0449 354.018 82.857 343.595C85.6799 340.258 89.3777 338.434 93.9503 338.125C109.097 337.085 119.502 336.322 125.163 335.835C131.882 335.257 139.483 334.116 147.967 332.412C165.81 328.826 182.496 322.451 198.025 313.286C223.408 298.306 245.458 276.518 259.565 250.857C267.199 236.96 272.703 222.097 276.075 206.268C282.415 176.514 287.069 147.589 291.868 118.345C295.645 95.3544 288.053 72.1432 271.84 55.6953C259.389 43.0512 244.023 36.0597 226.475 34.1349C223.312 33.785 219.614 33.6125 215.382 33.6176C150.887 33.6379 110.481 33.6455 94.164 33.6404C88.747 33.6328 86.9998 36.8737 86.0995 41.7807C81.0412 69.2142 75.6013 104.94 70.0775 134.884C70.0607 134.976 70.0643 135.069 70.088 135.159C70.1117 135.249 70.155 135.332 70.2147 135.404C70.2744 135.475 70.3492 135.532 70.4336 135.571C70.518 135.61 70.6101 135.63 70.7032 135.63C84.4566 135.645 118.912 135.658 174.068 135.668C177.369 135.668 182.455 136.38 189.327 137.806C203.284 140.692 214.034 147.98 221.577 159.67C232.381 176.407 232.342 198.409 228.329 217.132C223.584 239.232 210.125 258.419 191.509 271.261C177.873 280.664 162.242 286.725 144.618 289.443C138.464 290.392 131.236 290.767 122.935 290.569C122.487 290.559 96.1959 290.569 44.0608 290.6ZM49.7601 257.468C67.7505 257.382 93.3527 257.397 126.567 257.513C144.198 257.582 158.969 253.831 173.206 243.987C184.294 236.328 191.667 225.936 195.324 212.81C198.032 203.095 199.52 192.543 196.674 183.14C193.401 172.307 182.262 168.944 172.153 168.685C170.917 168.65 135.099 168.637 64.6987 168.647C64.547 168.647 64.4002 168.7 64.2842 168.798C64.1683 168.895 64.0907 169.031 64.0655 169.18L49.3939 257.034C49.3849 257.088 49.3877 257.143 49.4021 257.196C49.4164 257.249 49.442 257.297 49.4769 257.339C49.5119 257.38 49.5553 257.413 49.6043 257.435C49.6532 257.458 49.7064 257.469 49.7601 257.468Z" fill="white"/>
    <path d="M229.179 103.085C238.837 103.085 246.667 95.2552 246.667 85.5971C246.667 75.9389 238.837 68.1095 229.179 68.1095C219.521 68.1095 211.691 75.9389 211.691 85.5971C211.691 95.2552 219.521 103.085 229.179 103.085Z" fill="white"/>
</svg>
