<svg width="1024" height="1024" viewBox="0 0 1024 1024" fill="none" xmlns="http://www.w3.org/2000/svg">
    <path d="M904 0C970.274 0 1024 53.7258 1024 120V904C1024 970.274 970.274 1024 904 1024H120C53.7258 1024 0 970.274 0 904V120C0 53.7258 53.7258 0 120 0H904ZM574.865 227.442C515.563 227.216 449.583 227.196 376.925 227.384C348.119 227.454 326.5 246.295 318.785 273.098C317.133 278.827 315.532 286.314 313.982 295.557C278.926 503.938 252.915 657.863 235.95 757.331C234.705 764.622 234.377 770.587 234.964 775.224C235.684 780.992 237.715 785.473 241.058 788.666C248.933 796.199 257.651 798.462 267.21 795.457C276.181 792.647 283.803 783.994 285.282 775.106C288.821 753.865 294.458 720.427 302.192 674.791C302.206 674.718 302.244 674.653 302.3 674.605C302.356 674.558 302.425 674.532 302.497 674.533C382.733 674.486 423.2 674.471 423.896 674.486C436.673 674.791 447.798 674.214 457.271 672.754C484.397 668.57 508.454 659.24 529.442 644.768C558.095 625.002 578.81 595.471 586.114 561.455C592.291 532.638 592.35 498.775 575.722 473.014C564.112 455.02 547.566 443.802 526.084 439.36C515.508 437.167 507.679 436.07 502.599 436.07C417.705 436.055 364.673 436.035 343.504 436.012C343.361 436.012 343.219 435.981 343.089 435.921C342.959 435.861 342.844 435.773 342.752 435.663C342.66 435.554 342.594 435.425 342.558 435.287C342.521 435.149 342.515 435.005 342.541 434.864C351.043 388.776 359.416 333.788 367.201 291.563C368.587 284.011 371.277 279.022 379.614 279.034C404.729 279.042 466.92 279.03 566.187 278.999C572.7 278.991 578.391 279.257 583.261 279.796C610.27 282.758 633.92 293.519 653.085 312.98C678.039 338.296 689.723 374.021 683.91 409.407C676.524 454.418 669.361 498.939 659.603 544.734C654.412 569.098 645.941 591.974 634.19 613.363C612.478 652.859 578.541 686.395 539.472 709.451C515.571 723.557 489.889 733.37 462.426 738.889C449.368 741.512 437.667 743.268 427.325 744.158C418.612 744.908 402.598 746.082 379.285 747.683C372.247 748.159 366.556 750.965 362.211 756.102C348.648 772.144 359.522 795.902 380.718 795.973C388.539 795.996 399.307 795.969 413.022 795.891C418.025 795.867 428.817 794.934 445.398 793.092C495.423 787.541 544.215 769.649 585.621 740.2C604.864 726.516 621.301 712.183 634.931 697.203C655.841 674.221 673.142 648.554 686.834 620.201C696.949 599.257 704.285 578.761 708.841 558.715C713.217 539.418 718.454 514.211 724.553 483.096C725.931 476.078 727.187 466.011 728.322 452.896C728.393 452.069 728.706 449.434 729.262 444.993C730.624 434.174 737 427.511 747.299 425.192C750.618 424.443 753.139 424.041 754.861 423.986C762.377 423.721 768.597 423.225 773.521 422.499C782.622 421.164 790.877 416.867 789.926 406.375C789.162 397.874 781.8 389.584 774.989 384.619C765.446 377.656 754.501 372.386 742.155 368.811C737.188 367.37 734.734 365.942 733.854 360.989C727.207 323.343 704.296 288.624 675.021 264.468C651.593 245.136 625.876 232.068 595.603 229C590.224 228.45 581.829 227.478 574.865 227.442ZM334.263 486.831C442.611 486.815 497.74 486.835 499.65 486.89C515.21 487.288 532.355 492.463 537.393 509.138C541.773 523.61 539.483 539.851 535.314 554.804C529.686 575.006 518.338 591.003 501.271 602.79C479.359 617.942 456.624 623.715 429.486 623.609C378.365 623.43 338.96 623.406 311.27 623.539C311.187 623.541 311.105 623.524 311.029 623.489C310.954 623.455 310.888 623.403 310.834 623.34C310.78 623.276 310.741 623.201 310.719 623.12C310.697 623.039 310.692 622.954 310.706 622.871L333.288 487.65C333.327 487.421 333.446 487.213 333.624 487.062C333.802 486.912 334.029 486.831 334.263 486.831ZM587.421 332.088C572.556 332.088 560.505 344.139 560.505 359.004C560.505 373.869 572.556 385.92 587.421 385.92C602.286 385.92 614.337 373.869 614.337 359.004C614.337 344.139 602.286 332.088 587.421 332.088Z" fill="#A7AAAD"/>
</svg>
